<svg width="50" height="50" viewBox="0 0 50 50" fill="none" xmlns="http://www.w3.org/2000/svg">
<rect width="49.9091" height="49.9091" rx="4.09091" fill="url(#paint0_linear_0_28)"/>
<rect x="0.293583" y="0.293583" width="49.3219" height="49.3219" rx="3.79733" stroke="#00FF41" stroke-opacity="0.5" stroke-width="0.587166"/>
<path d="M16.9773 27.0813C16.9773 25.0934 16.9773 24.0994 17.4049 23.3591C17.6849 22.8741 18.0877 22.4713 18.5728 22.1913C19.313 21.7637 20.307 21.7637 22.2949 21.7637H27.6142C29.6021 21.7637 30.5961 21.7637 31.3364 22.1913C31.8214 22.4713 32.2242 22.8741 32.5043 23.3591C32.9318 24.0994 32.9318 25.0934 32.9318 27.0813V29.741C32.9318 31.2247 32.9318 31.965 32.809 32.5809C32.5628 33.8189 31.955 34.9562 31.0624 35.8488C30.1698 36.7413 29.0325 37.3492 27.7945 37.5954C27.1786 37.7182 26.4383 37.7182 24.9546 37.7182C23.4708 37.7182 22.7305 37.7182 22.1147 37.5954C20.8766 37.3492 19.7394 36.7413 18.8468 35.8488C17.9542 34.9562 17.3464 33.8189 17.1001 32.5809C16.9773 31.965 16.9773 31.2247 16.9773 29.741V27.0813ZM20.1682 18.5728C20.1682 17.0858 20.1682 16.3423 20.4107 15.7568C20.5711 15.3694 20.8062 15.0174 21.1027 14.7209C21.3992 14.4244 21.7512 14.1893 22.1386 14.0289C22.7241 13.7864 23.4676 13.7864 24.9546 13.7864C26.4415 13.7864 27.185 13.7864 27.7705 14.0289C28.158 14.1893 28.51 14.4244 28.8064 14.7209C29.1029 15.0174 29.3381 15.3694 29.4984 15.7568C29.7409 16.3423 29.7409 17.0858 29.7409 18.5728V21.7637H20.1682V18.5728ZM24.9546 21.7637V28.1455V21.7637ZM29.7409 9.00005L26.55 13.7864L29.7409 9.00005ZM20.1682 9.00005L23.3591 13.7864L20.1682 9.00005ZM16.9773 29.741H9.00002H16.9773ZM40.9091 29.741H32.9318H40.9091ZM37.7182 18.5728V20.1682C37.7182 21.4376 37.2139 22.6551 36.3163 23.5527C35.4187 24.4503 34.2013 24.9546 32.9318 24.9546M37.7182 39.3137C37.7182 38.0443 37.2139 36.8268 36.3163 35.9292C35.4187 35.0316 34.2013 34.5273 32.9318 34.5273M12.1909 18.5728V20.1682C12.1909 21.4376 12.6952 22.6551 13.5928 23.5527C14.4904 24.4503 15.7079 24.9546 16.9773 24.9546M12.1909 39.3137C12.1909 38.0443 12.6952 36.8268 13.5928 35.9292C14.4904 35.0316 15.7079 34.5273 16.9773 34.5273" fill="url(#paint1_linear_0_28)"/>
<path d="M32.9318 29.741V27.0813C32.9318 25.0934 32.9318 24.0994 32.5043 23.3591C32.2242 22.8741 31.8214 22.4713 31.3364 22.1913C30.5961 21.7637 29.6021 21.7637 27.6142 21.7637H22.2949C20.307 21.7637 19.313 21.7637 18.5727 22.1913C18.0877 22.4713 17.6849 22.8741 17.4049 23.3591C16.9773 24.0994 16.9773 25.0934 16.9773 27.0813V29.741M32.9318 29.741C32.9318 31.2247 32.9318 31.965 32.809 32.5809C32.5628 33.8189 31.955 34.9562 31.0624 35.8488C30.1698 36.7413 29.0325 37.3492 27.7945 37.5954C27.1786 37.7182 26.4383 37.7182 24.9546 37.7182C23.4708 37.7182 22.7305 37.7182 22.1147 37.5954C20.8766 37.3492 19.7394 36.7413 18.8468 35.8488C17.9542 34.9562 17.3464 33.8189 17.1001 32.5809C16.9773 31.965 16.9773 31.2247 16.9773 29.741M32.9318 29.741H40.9091M16.9773 29.741H9.00002M24.9546 21.7637V28.1455M29.7409 9.00005L26.55 13.7864M20.1682 9.00005L23.3591 13.7864M37.7182 18.5728V20.1682C37.7182 21.4376 37.2139 22.6551 36.3163 23.5527C35.4187 24.4503 34.2013 24.9546 32.9318 24.9546M37.7182 39.3137C37.7182 38.0443 37.2139 36.8268 36.3163 35.9292C35.4187 35.0316 34.2013 34.5273 32.9318 34.5273M12.1909 18.5728V20.1682C12.1909 21.4376 12.6952 22.6551 13.5928 23.5527C14.4904 24.4503 15.7079 24.9546 16.9773 24.9546M12.1909 39.3137C12.1909 38.0443 12.6952 36.8268 13.5928 35.9292C14.4904 35.0316 15.7079 34.5273 16.9773 34.5273M20.1682 18.5728C20.1682 17.0858 20.1682 16.3423 20.4107 15.7568C20.5711 15.3694 20.8062 15.0174 21.1027 14.7209C21.3992 14.4244 21.7512 14.1893 22.1386 14.0289C22.7241 13.7864 23.4676 13.7864 24.9546 13.7864C26.4415 13.7864 27.185 13.7864 27.7705 14.0289C28.158 14.1893 28.51 14.4244 28.8064 14.7209C29.1029 15.0174 29.3381 15.3694 29.4984 15.7568C29.7409 16.3423 29.7409 17.0858 29.7409 18.5728V21.7637H20.1682V18.5728Z" stroke="#00FF41" stroke-width="3.19091"/>
<defs>
<linearGradient id="paint0_linear_0_28" x1="49.9091" y1="40.3965" x2="-2.09135e-06" y2="11.5814" gradientUnits="userSpaceOnUse">
<stop offset="0.248841" stop-color="#00FF41" stop-opacity="0.1"/>
<stop offset="0.601907" stop-color="#00FF41" stop-opacity="0.2125"/>
<stop offset="0.9" stop-color="#00FF41" stop-opacity="0.325"/>
</linearGradient>
<linearGradient id="paint1_linear_0_28" x1="40.9091" y1="33.5359" x2="9.83917" y2="14.6536" gradientUnits="userSpaceOnUse">
<stop offset="0.248841" stop-color="#00FF41" stop-opacity="0.1"/>
<stop offset="0.601907" stop-color="#00FF41" stop-opacity="0.2125"/>
<stop offset="0.9" stop-color="#00FF41" stop-opacity="0.325"/>
</linearGradient>
</defs>
</svg>
